<svg width="1024" height="218" viewBox="0 0 1024 218" fill="none" xmlns="http://www.w3.org/2000/svg">
<path fill-rule="evenodd" clip-rule="evenodd" d="M1024 118.909L989.867 143.682C955.733 168.455 887.467 218 819.2 218C750.933 218 682.667 168.455 614.4 163.5C546.133 158.545 477.867 198.182 409.6 208.091C341.333 218 273.067 198.182 204.8 183.318C136.533 168.455 68.2666 158.545 34.1333 153.591L0 148.636V-4.52995e-06H34.1333C68.2666 -4.52995e-06 136.533 -4.52995e-06 204.8 -4.52995e-06C273.067 -4.52995e-06 341.333 -4.52995e-06 409.6 -4.52995e-06C477.867 -4.52995e-06 546.133 -4.52995e-06 614.4 -4.52995e-06C682.667 -4.52995e-06 750.933 -4.52995e-06 819.2 -4.52995e-06C887.467 -4.52995e-06 955.733 -4.52995e-06 989.867 -4.52995e-06H1024V118.909Z" fill="#558A78" fill-opacity="0.8"/>
</svg>
